HIERARCHY
ROOT Hips
{
  OFFSET 0.000000 0.000000 0.000000
  CHANNELS 6 Xposition Yposition Zposition Zrotation Xrotation Yrotation
  JOINT Spine
  {
    OFFSET 0.000000 12.000000 0.000000
    CHANNELS 3 Zrotation Xrotation Yrotation
    JOINT Spine1
    {
      OFFSET 0.000000 15.000000 0.000000
      CHANNELS 3 Zrotation Xrotation Yrotation
      JOINT Spine2
      {
        OFFSET 0.000000 15.000000 0.000000
        CHANNELS 3 Zrotation Xrotation Yrotation
        JOINT Neck
        {
          OFFSET 0.000000 12.000000 0.000000
          CHANNELS 3 Zrotation Xrotation Yrotation
          JOINT Head
          {
            OFFSET 0.000000 8.000000 0.000000
            CHANNELS 3 Zrotation Xrotation Yrotation
            End Site
            {
              OFFSET 0.0 0.0 5.0
            }
          }
        }
        JOINT LeftShoulder
        {
          OFFSET -8.000000 5.000000 0.000000
          CHANNELS 3 Zrotation Xrotation Yrotation
          JOINT LeftArm
          {
            OFFSET -18.000000 0.000000 0.000000
            CHANNELS 3 Zrotation Xrotation Yrotation
            JOINT LeftForeArm
            {
              OFFSET -25.000000 0.000000 0.000000
              CHANNELS 3 Zrotation Xrotation Yrotation
              JOINT LeftHand
              {
                OFFSET -18.000000 0.000000 0.000000
                CHANNELS 3 Zrotation Xrotation Yrotation
                End Site
                {
                  OFFSET 0.0 0.0 5.0
                }
              }
            }
          }
        }
        JOINT RightShoulder
        {
          OFFSET 8.000000 5.000000 0.000000
          CHANNELS 3 Zrotation Xrotation Yrotation
          JOINT RightArm
          {
            OFFSET 18.000000 0.000000 0.000000
            CHANNELS 3 Zrotation Xrotation Yrotation
            JOINT RightForeArm
            {
              OFFSET 25.000000 0.000000 0.000000
              CHANNELS 3 Zrotation Xrotation Yrotation
              JOINT RightHand
              {
                OFFSET 18.000000 0.000000 0.000000
                CHANNELS 3 Zrotation Xrotation Yrotation
                End Site
                {
                  OFFSET 0.0 0.0 5.0
                }
              }
            }
          }
        }
      }
    }
  }
  JOINT LeftUpLeg
  {
    OFFSET -5.000000 0.000000 0.000000
    CHANNELS 3 Zrotation Xrotation Yrotation
    JOINT LeftLeg
    {
      OFFSET 0.000000 -40.000000 0.000000
      CHANNELS 3 Zrotation Xrotation Yrotation
      JOINT LeftFoot
      {
        OFFSET 0.000000 -40.000000 0.000000
        CHANNELS 3 Zrotation Xrotation Yrotation
        JOINT LeftToeBase
        {
          OFFSET 0.000000 0.000000 15.000000
          CHANNELS 3 Zrotation Xrotation Yrotation
          End Site
          {
            OFFSET 0.0 0.0 5.0
          }
        }
      }
    }
  }
  JOINT RightUpLeg
  {
    OFFSET 5.000000 0.000000 0.000000
    CHANNELS 3 Zrotation Xrotation Yrotation
    JOINT RightLeg
    {
      OFFSET 0.000000 -40.000000 0.000000
      CHANNELS 3 Zrotation Xrotation Yrotation
      JOINT RightFoot
      {
        OFFSET 0.000000 -40.000000 0.000000
        CHANNELS 3 Zrotation Xrotation Yrotation
        JOINT RightToeBase
        {
          OFFSET 0.000000 0.000000 15.000000
          CHANNELS 3 Zrotation Xrotation Yrotation
          End Site
          {
            OFFSET 0.0 0.0 5.0
          }
        }
      }
    }
  }
}
MOTION
Frames: 16
Frame Time: 0.033333
18.143602 104.058015 1.898650 0.000000 0.000000 0.000000 15.784949 -2.396589 -100.362813 -30.924225 31.575128 -98.375078 25.810957 -35.476102 -131.071357 29.484742 -19.590743 -108.404419 29.484742 -19.590743 -108.404419 -11.287366 15.259677 -106.771115 22.176490 -5.756294 -78.137029 8.391845 2.705575 -96.598996 8.391845 2.705575 -96.598996 -5.533739 4.740212 -83.129795 15.215587 -6.547286 -87.685641 34.857379 -23.263124 -104.033801 27.310491 -2.649048 -139.132497 -98.894207 39.419860 -113.037937 -69.870629 63.968178 -6.773752 6.985073 -27.324518 -83.323349 -68.833096 63.654631 -55.389497 -29.039635 110.366992 -68.750547 3.396159 -2.107624 -47.068479 18.480226 -36.918733 -44.382849 0.000000 0.000000 0.000000
18.439849 104.162717 2.787418 0.000000 0.000000 0.000000 15.322187 -2.809895 -100.492915 -31.687908 31.207684 -99.386670 24.704115 -34.101782 -132.749877 26.658891 -19.038654 -111.900833 26.658891 -19.038654 -111.900833 -11.541895 14.621249 -106.954772 22.127603 -5.988457 -78.967451 9.491871 3.355346 -97.804805 9.491871 3.355346 -97.804805 -5.374209 5.924102 -82.637305 15.606713 -5.131301 -86.858600 34.711657 -23.025568 -103.133801 25.845526 -1.997805 -137.523536 -99.601719 41.852230 -110.780955 -70.035442 64.345422 -4.627701 4.646001 -26.695764 -79.103897 -66.325091 65.661170 -51.543066 -26.400210 110.575981 -65.381077 3.899102 -0.776895 -46.084126 18.624336 -35.674768 -43.216045 0.000000 0.000000 0.000000
18.119061 105.288100 2.585597 0.000000 0.000000 0.000000 11.475925 -11.519146 -104.438524 -32.984900 32.814811 -98.669712 26.842932 -33.333734 -132.595828 26.971387 -18.231436 -115.150979 26.971387 -18.231436 -115.150979 -4.087427 11.187253 -107.322339 14.181437 -2.934384 -79.316692 9.317141 3.354884 -97.451124 9.317141 3.354884 -97.451124 -4.634685 6.257385 -84.779634 16.981727 -4.441052 -88.199599 35.839498 -23.946708 -104.016555 27.744015 -2.159355 -142.491611 -101.833606 36.833011 -114.712795 -72.768562 60.846638 -8.069887 6.107583 -25.394172 -81.798619 -67.210612 64.560560 -55.141196 -26.859483 111.619464 -65.159233 3.467533 -5.329391 -46.387199 18.477038 -40.406942 -43.811378 0.000000 0.000000 0.000000
17.819172 105.202270 3.300808 0.000000 0.000000 0.000000 15.816459 -9.766380 -108.935541 -33.004994 32.487299 -101.034159 25.860377 -32.740519 -134.364615 27.524238 -17.281968 -115.478186 27.524238 -17.281968 -115.478186 -5.271981 11.165512 -109.760265 12.191097 -2.948846 -78.568288 8.611673 3.749214 -95.266406 8.611673 3.749214 -95.266406 -2.801941 6.226332 -89.743030 19.079449 -3.117351 -88.778792 37.142142 -23.576519 -103.954659 26.514697 -1.184858 -139.016083 -100.669380 41.077984 -112.189224 -73.283955 61.772449 -3.020570 5.373625 -28.146914 -78.997626 -66.321717 65.478449 -51.208527 -3.953082 93.545799 -62.965738 1.913093 -4.740990 -46.830803 17.056589 -39.674315 -44.734273 0.000000 0.000000 0.000000
17.639072 105.371380 3.684621 0.000000 0.000000 0.000000 16.578974 -9.072427 -109.050623 -34.055771 32.049242 -101.304498 24.398189 -31.033900 -135.312140 27.366403 -18.543072 -113.756111 27.366403 -18.543072 -113.756111 -5.960732 11.130588 -110.109145 12.071813 -2.720459 -78.804442 8.764891 3.432762 -95.285100 8.764891 3.432762 -95.285100 -1.368679 7.337950 -90.118499 19.823548 -3.399858 -87.690729 37.650820 -23.795660 -102.882887 26.974792 -1.248751 -139.296463 -100.115363 40.561112 -112.971944 -73.118972 61.978585 -3.818638 5.191009 -26.607274 -81.037469 -67.280061 64.333320 -53.411072 -7.933536 95.136797 -68.794868 1.356643 -4.799308 -46.872836 16.529710 -39.724616 -44.958723 0.000000 0.000000 0.000000
17.435662 105.712903 0.954730 0.000000 0.000000 0.000000 14.256802 -10.060570 -99.948262 -32.945267 34.702747 -97.077534 23.793302 -27.163562 -132.432409 26.581289 -20.943752 -113.427148 26.581289 -20.943752 -113.427148 -0.959330 11.743877 -103.168013 10.762199 -2.185361 -75.765499 8.795428 2.595130 -94.467718 8.795428 2.595130 -94.467718 -4.899210 2.861657 -87.009193 16.758999 -7.595470 -87.967250 37.330829 -24.009998 -103.864959 26.622720 -1.900405 -140.366493 -101.802187 39.400492 -112.407190 -74.557928 59.093362 -2.313404 6.342231 -25.785691 -78.910603 -65.346161 66.594590 -53.026795 -5.468737 99.293581 -67.976065 -1.002789 -7.315305 -48.179987 14.742432 -42.197643 -47.095435 0.000000 0.000000 0.000000
16.893108 105.658507 2.112782 0.000000 0.000000 0.000000 17.043781 -9.658966 -106.624376 -33.772410 34.856907 -99.348387 23.411365 -27.815486 -133.707592 25.999173 -21.722904 -112.812042 25.999173 -21.722904 -112.812042 -4.929091 12.609957 -107.709563 11.440604 -1.903797 -77.321792 8.482400 1.920818 -94.788334 8.482400 1.920818 -94.788334 -3.053090 3.352154 -87.478235 19.243073 -5.637160 -88.369056 39.111593 -23.741070 -103.660606 28.085383 -1.425448 -138.522015 -99.902507 41.278999 -112.680561 -74.846395 61.963852 -2.113574 8.664503 -26.790341 -80.477537 -65.750352 65.725544 -55.226038 -2.862784 99.568729 -71.904427 0.556971 -6.773109 -47.071874 15.868741 -41.719557 -45.492909 0.000000 0.000000 0.000000
17.774968 105.946636 0.904685 0.000000 0.000000 0.000000 14.463458 -12.159349 -100.858139 -33.920020 35.002678 -95.456955 23.829798 -26.587328 -131.963243 26.423473 -20.686360 -110.670095 26.423473 -20.686360 -110.670095 -1.479726 12.649813 -101.518631 11.062758 -3.052743 -71.877960 6.815264 -2.788344 -89.357999 6.815264 -2.788344 -89.357999 -4.120180 3.035118 -85.647062 18.072728 -6.036315 -87.092152 38.401813 -23.823206 -102.652887 28.323360 -2.164915 -139.028733 -100.892495 40.505536 -112.211894 -74.017312 59.322768 -1.282382 8.508760 -25.821001 -79.928950 -65.562501 66.894784 -54.950087 -1.910068 100.703817 -70.147320 -1.233012 -7.855407 -46.034594 13.803933 -42.881297 -45.118648 0.000000 0.000000 0.000000
16.661526 105.841196 2.095028 0.000000 0.000000 0.000000 17.425037 -9.734922 -107.250137 -36.899219 34.782144 -94.767120 19.180300 -24.650141 -128.629715 27.993016 -26.169429 -99.411115 27.993016 -26.169429 -99.411115 -5.002868 13.434960 -106.936365 11.187433 -2.624197 -75.279046 7.441230 -1.075453 -92.800366 7.441230 -1.075453 -92.800366 -2.952572 2.581725 -88.381070 19.170941 -6.614650 -88.655323 39.841866 -23.449892 -103.972685 28.090907 -1.451780 -140.725639 -101.901628 39.342757 -113.454005 -76.893368 58.021235 -1.405417 7.324400 -28.025656 -78.598012 -65.250655 66.265280 -52.390986 -2.050716 104.217533 -64.590517 0.947247 -7.311792 -46.262145 15.980906 -42.303866 -44.606989 0.000000 0.000000 0.000000
17.275625 105.565107 2.077811 0.000000 0.000000 0.000000 17.828228 -8.535799 -106.672658 -35.685655 35.154632 -98.241336 21.748338 -24.058705 -135.203390 23.697056 -25.110648 -108.685508 23.697056 -25.110648 -108.685508 -4.788833 12.353339 -107.128328 11.842397 -2.193396 -77.179416 6.694573 0.157894 -96.246490 6.694573 0.157894 -96.246490 -2.643255 4.247620 -87.965371 18.701848 -6.249926 -87.762358 38.739634 -23.770388 -103.276046 27.006281 -2.352963 -140.096018 -102.434485 39.601771 -111.603276 -75.498022 57.491239 -0.302836 6.916885 -27.229434 -80.792573 -67.050341 65.356318 -53.729181 1.106840 102.056140 -67.781131 1.012791 -6.612396 -44.438744 15.430173 -41.741222 -42.791538 0.000000 0.000000 0.000000
17.356814 105.917215 2.258036 0.000000 0.000000 0.000000 17.631100 -8.110809 -106.053584 -38.396643 34.551820 -94.894578 18.993144 -23.566677 -131.972464 24.401423 -28.124473 -98.585906 24.401423 -28.124473 -98.585906 -4.602135 12.232309 -104.889890 11.611729 -2.758268 -73.562852 5.684205 -3.933895 -92.471636 5.684205 -3.933895 -92.471636 -3.041384 4.270986 -87.476255 18.846225 -5.713295 -89.086287 39.156710 -23.293693 -104.517706 28.517410 -2.145886 -141.964976 -104.762780 38.262163 -112.428670 -77.437147 55.070623 -0.723904 6.190108 -27.283348 -83.114113 -68.709053 63.257182 -54.954722 1.608631 97.944667 -72.003021 0.245699 -7.988904 -45.679298 15.104709 -42.996656 -44.302338 0.000000 0.000000 0.000000
16.864225 105.739844 2.153709 0.000000 0.000000 0.000000 19.694154 -6.584786 -108.022529 -37.995909 35.485910 -96.444306 18.658178 -22.031745 -135.366030 22.554050 -27.640705 -102.026797 22.554050 -27.640705 -102.026797 -7.259386 13.249890 -107.296582 13.330731 -1.821578 -76.327787 7.485613 0.504296 -97.023759 7.485613 0.504296 -97.023759 -2.453948 3.291124 -90.173571 18.688603 -7.279645 -88.471700 39.438045 -23.169149 -104.029183 27.127834 -2.053130 -141.403945 -103.703561 38.674710 -112.189272 -78.272533 57.113649 -0.661078 5.718932 -26.066155 -80.093503 -67.416863 66.842704 -52.464315 4.722793 101.648678 -66.788274 -0.271308 -7.166826 -46.868113 14.968034 -42.048533 -45.589628 0.000000 0.000000 0.000000
17.472880 105.790281 2.465633 0.000000 0.000000 0.000000 19.507544 -6.155309 -107.826953 -38.575126 34.801832 -96.608354 18.471074 -22.308535 -135.864511 20.805628 -26.014966 -102.039270 20.805628 -26.014966 -102.039270 -6.228754 12.070928 -106.957300 13.419372 -2.137316 -75.790368 6.709782 1.890221 -96.745620 6.709782 1.890221 -96.745620 -2.427485 4.738390 -89.877093 18.990470 -6.085849 -88.759524 39.801735 -23.108006 -104.169660 26.765963 -1.853684 -141.246809 -103.614215 38.959416 -112.076724 -78.442270 56.576445 0.140008 7.944860 -27.655392 -82.001714 -67.903029 65.030525 -54.781740 2.479440 103.327170 -69.581807 -0.436608 -8.278311 -45.565117 14.449477 -43.390754 -44.418288 0.000000 0.000000 0.000000
17.355905 105.996501 2.040351 0.000000 0.000000 0.000000 18.951518 -6.872326 -106.890596 -39.647479 35.380953 -94.127616 17.079322 -21.313731 -134.700169 21.010319 -28.338620 -97.584859 21.010319 -28.338620 -97.584859 -5.845828 12.598379 -104.295807 12.410126 -2.844522 -72.559599 6.984348 -0.143886 -93.377347 6.984348 -0.143886 -93.377347 -2.688282 3.814978 -88.911530 18.932815 -6.667854 -87.755965 39.790537 -23.540857 -103.118433 26.320520 -0.581269 -142.431875 -104.667424 38.742066 -113.013614 -76.788764 55.663009 -1.696812 9.030222 -27.670597 -81.276137 -66.299622 64.852066 -55.625836 7.711744 102.154331 -70.685423 -0.611330 -7.184729 -44.824428 13.978859 -42.259371 -43.718856 0.000000 0.000000 0.000000
17.303020 106.131268 2.284147 0.000000 0.000000 0.000000 20.685948 -4.728699 -106.112350 -39.899373 35.542306 -95.121777 15.555380 -19.378404 -135.799747 20.998402 -29.508213 -97.934237 20.998402 -29.508213 -97.934237 -8.217163 12.155150 -105.387476 14.568983 -2.174843 -74.201037 8.324055 1.407587 -96.022317 8.324055 1.407587 -96.022317 -1.845495 4.242876 -89.054124 19.972653 -5.968841 -88.337056 40.269467 -23.908595 -103.512706 28.073582 -1.909275 -145.045501 -106.541826 35.325653 -114.078284 -78.148033 54.052922 -4.058406 9.216291 -27.265919 -84.876227 -69.208319 63.317848 -57.867794 4.893024 101.010049 -71.344789 -0.333997 -8.094764 -44.202481 14.069501 -43.248458 -43.061174 0.000000 0.000000 0.000000
17.097472 106.052542 2.486223 0.000000 0.000000 0.000000 19.213273 -8.472362 -109.806916 -41.234009 35.918667 -92.839702 15.299643 -19.264506 -132.624939 20.393567 -31.106430 -94.831822 20.393567 -31.106430 -94.831822 -5.387298 14.185256 -104.763258 11.343866 -4.432919 -71.844069 6.181061 -3.007689 -93.386854 6.181061 -3.007689 -93.386854 -1.827866 3.520728 -91.434185 19.795698 -6.649369 -88.730441 40.805760 -22.922086 -103.988476 27.290356 -0.864331 -140.903633 -102.064807 39.577750 -113.532655 -79.745020 61.813184 -3.000238 6.556260 -26.776074 -77.839302 -65.122855 67.569559 -51.641028 11.635140 98.788701 -63.095061 0.328937 -7.937176 -44.193872 14.695125 -43.059148 -42.833246 0.000000 0.000000 0.000000
